<?xml version="1.0" standalone="no"?>
<!DOCTYPE svg PUBLIC "-//W3C//DTD SVG 20010904//EN"
 "http://www.w3.org/TR/2001/REC-SVG-20010904/DTD/svg10.dtd">
<svg version="1.0" xmlns="http://www.w3.org/2000/svg"
 width="1024.000000pt" height="1024.000000pt" viewBox="0 0 1024.000000 1024.000000"
 preserveAspectRatio="xMidYMid meet">
<metadata>
Created by potrace 1.14, written by Peter Selinger 2001-2017
</metadata>
<g transform="translate(0.000000,1024.000000) scale(0.100000,-0.100000)"
fill="#000000" stroke="none">
<path d="M1541 8336 c-4 -6 -7 -72 -6 -146 l2 -135 40 -85 c98 -206 193 -409
233 -495 15 -33 49 -105 75 -160 26 -55 62 -133 81 -172 19 -40 49 -106 68
-145 19 -40 61 -131 95 -202 34 -70 61 -130 61 -131 0 -1 29 -63 64 -136 35
-74 78 -165 96 -204 167 -356 225 -481 313 -665 27 -58 62 -132 77 -165 15
-33 49 -105 75 -160 54 -116 101 -215 149 -317 32 -69 66 -142 158 -338 22
-47 55 -116 73 -155 52 -112 109 -232 160 -340 47 -99 84 -177 149 -317 43
-94 249 -531 316 -673 29 -60 64 -135 77 -165 14 -30 54 -115 89 -189 35 -73
64 -135 64 -137 0 -2 30 -65 66 -141 36 -76 77 -163 91 -193 63 -133 123 -260
151 -320 16 -36 48 -104 71 -152 l41 -88 619 0 618 0 48 112 c26 62 56 131 65
153 10 22 55 126 100 230 44 105 85 198 90 207 8 13 -1 41 -34 110 -46 99
-100 212 -161 343 -43 92 -95 203 -153 325 -22 47 -59 126 -82 175 -23 50 -59
126 -80 170 -21 44 -57 121 -80 170 -23 50 -59 126 -80 170 -21 44 -72 152
-113 240 -41 88 -96 205 -122 260 -57 120 -115 244 -160 340 -18 39 -56 120
-85 180 -29 61 -67 142 -85 180 -18 39 -85 183 -150 320 -65 138 -136 288
-157 335 -22 47 -62 131 -89 187 -27 55 -62 130 -78 165 -16 34 -50 108 -76
163 -26 55 -64 136 -85 180 -21 44 -60 127 -87 185 -28 58 -60 126 -72 152
-12 26 -53 114 -91 194 -39 81 -70 148 -70 150 0 2 -31 68 -69 146 -38 79 -83
175 -101 213 -18 39 -53 113 -77 165 -25 52 -60 127 -78 165 -147 313 -207
440 -211 445 -11 11 -1735 6 -1743 -4z"/>
<path d="M6901 8336 c-4 -6 -41 -90 -80 -186 -40 -96 -79 -188 -86 -205 -8
-16 -24 -55 -35 -85 -12 -30 -28 -68 -35 -85 -8 -16 -82 -194 -165 -395 -84
-201 -160 -383 -169 -405 -10 -22 -26 -60 -36 -85 -10 -25 -23 -58 -30 -75 -7
-16 -36 -86 -65 -155 -29 -69 -58 -138 -65 -155 -8 -16 -41 -97 -75 -180 -35
-82 -85 -204 -112 -270 -27 -66 -65 -158 -85 -205 -19 -47 -41 -98 -48 -115
-7 -16 -32 -75 -55 -130 -22 -55 -45 -109 -50 -120 -4 -11 -36 -87 -70 -170
-34 -82 -68 -163 -75 -180 -15 -33 -132 -317 -145 -351 -8 -21 -5 -29 146
-351 33 -71 68 -146 138 -295 18 -40 53 -113 76 -163 23 -49 55 -117 70 -150
15 -33 49 -105 75 -160 26 -55 60 -127 75 -160 202 -439 228 -491 238 -464 16
40 83 202 97 234 7 17 72 174 145 350 72 176 139 336 147 355 8 19 18 44 23
55 4 11 12 31 18 45 6 14 23 54 37 90 34 83 36 90 104 249 39 94 61 135 74
137 9 1 17 -1 18 -4 0 -4 1 -622 1 -1374 l1 -1368 903 0 902 0 -1 3268 -2
3267 -898 1 c-618 0 -900 -3 -906 -10z"/>
<path d="M1535 4455 l0 -2645 871 0 c689 0 873 3 876 12 2 7 3 365 2 794 l-1
782 -32 67 c-18 38 -49 102 -68 144 -19 42 -52 112 -73 156 -21 44 -54 114
-73 155 -19 41 -56 120 -82 175 -26 55 -62 132 -80 170 -18 39 -54 115 -80
170 -26 55 -60 127 -75 160 -15 33 -48 103 -73 155 -24 52 -56 120 -69 150
-14 30 -48 102 -75 160 -28 58 -62 130 -76 160 -14 30 -51 109 -82 175 -32 66
-70 147 -85 180 -15 33 -51 108 -79 167 -28 59 -51 109 -51 111 0 2 -32 71
-71 153 -90 191 -128 270 -174 369 -21 44 -60 127 -87 185 -28 58 -61 130 -75
160 -14 30 -50 107 -80 170 -30 63 -64 136 -75 163 -11 26 -23 47 -27 47 -3 0
-6 -1190 -6 -2645z"/>
</g>
</svg>
